<svg width="142" height="142" viewBox="0 0 142 142" fill="none" xmlns="http://www.w3.org/2000/svg">
<g clip-path="url(#clip0_759_681)">
<rect width="141.67" height="141.67" fill="white"/>
<path d="M35.5224 92.9355C27.8014 92.9355 22.418 98.4606 22.418 106.359C22.418 114.257 27.8014 119.782 35.5224 119.782C43.2434 119.782 48.6623 114.257 48.6623 106.359C48.6623 98.4606 43.2434 92.9355 35.5224 92.9355Z" fill="#00C455"/>
<path d="M117.267 35.4175C117.267 28.2278 112.733 23.3756 106.004 23.3756H96.335V47.4595H106.004C112.733 47.4595 117.267 42.6073 117.267 35.4175Z" fill="#00C455"/>
<path d="M0 0V141.67H141.67V0H0ZM85.0019 17.9212C85.0019 14.6274 87.1978 12.3961 90.4208 12.3961H105.544C119.109 12.3961 128.211 21.6401 128.211 35.4175C128.211 49.1949 119.109 58.4388 105.544 58.4388H90.4562C87.2687 58.4388 85.0374 56.1721 85.0374 52.9491V17.9212H85.0019ZM20.0463 18.3463C24.3672 13.8836 30.4236 11.4398 37.1529 11.4398C46.8219 11.4398 52.2408 15.1233 55.2158 18.9129C57.943 22.3484 55.9242 27.4485 51.6033 28.1215C49.5845 28.4402 47.5657 27.661 46.2552 26.1027C44.201 23.6235 41.1905 22.4193 37.1529 22.4193C29.6444 22.4193 24.5797 27.8381 24.5797 35.9133C24.5797 43.9885 29.609 49.4074 37.1529 49.4074C41.1551 49.4074 44.1656 48.1678 46.2552 45.6531C47.5657 44.0948 49.6199 43.3156 51.6033 43.6343H51.6387C55.9596 44.3427 57.943 49.4074 55.2158 52.8429C52.2408 56.6325 46.8219 60.3514 37.1175 60.3514C30.3882 60.3514 24.2964 57.9076 20.0109 53.445C15.7254 49.0178 13.3878 42.7843 13.3878 35.8425C13.3878 28.9007 15.7608 22.7734 20.0463 18.3463ZM35.5237 130.797C21.1442 130.797 11.0857 120.738 11.0857 106.359C11.0857 91.9792 21.1442 81.9206 35.5237 81.9206C49.9032 81.9206 59.9618 91.9792 59.9618 106.359C59.9618 120.738 49.9032 130.797 35.5237 130.797ZM121.624 129.734C119.074 129.734 117.232 128.636 114.823 125.626L96.6897 103.136V124.315C96.6897 127.503 94.3522 129.734 90.9875 129.734C87.6228 129.734 85.3561 127.503 85.3561 124.315V89.252C85.3561 85.4624 87.7999 82.9831 91.5896 82.9831C94.2459 82.9831 95.8397 84.0102 98.496 87.4103L116.169 109.44V88.3666C116.169 85.179 118.507 82.9477 121.836 82.9477C125.165 82.9477 127.503 85.179 127.503 88.3666V123.607C127.432 127.29 125.272 129.734 121.624 129.734Z" fill="#00C455"/>
</g>
<defs>
<clipPath id="clip0_759_681">
<rect width="141.67" height="141.67" fill="white"/>
</clipPath>
</defs>
</svg>
