<svg width="130" height="48" viewBox="0 0 130 48" fill="none" xmlns="http://www.w3.org/2000/svg">
<path fill-rule="evenodd" clip-rule="evenodd" d="M122.752 4.0356C122.157 1.90601 120.298 0.0527007 117.808 0H13.5032C10.9958 0.0582902 9.14116 1.92517 8.45908 4.0356C5.95944 10.5026 0 16.8946 0 24.002C0 31.1094 5.95944 37.5022 8.45908 43.9692C9.14038 46.078 10.9958 47.9425 13.5032 48H117.808C120.298 47.9473 122.155 46.0964 122.752 43.9692C124.913 37.4399 130 31.0136 130 24.002C130 16.9912 124.913 10.5649 122.752 4.0356" fill="#FF5776"/>
<path fill-rule="evenodd" clip-rule="evenodd" d="M75.1988 31.3487C79.5788 31.3487 82.3503 28.1209 82.3918 24.022V23.3012C82.3918 19.1598 79.6111 15.851 75.1988 15.851H71.3603V31.3487H75.1988ZM67.7949 14.2749C67.7949 13.2858 68.6111 12.48 69.5788 12.48H75.1988C81.6672 12.48 86.0495 17.2729 86.0495 23.3012V24.022C86.0049 30.0078 81.6334 34.7496 75.1688 34.7496H69.5788C68.6111 34.7496 67.7949 33.9155 67.7949 32.9256V14.2749ZM14.7838 12.4974C13.8169 12.4974 13 13.3023 13 14.2915V32.9029C13 33.892 13.8169 34.7277 14.7838 34.7277C15.7508 34.7277 16.5654 33.892 16.5654 32.9029V24.9876H24.8708C25.7762 24.9876 26.5023 24.2463 26.5023 23.3186C26.5023 22.3602 25.7762 21.6197 24.8708 21.6197H16.5654V15.8676H24.8708C25.7762 15.8676 26.5023 15.1271 26.5023 14.1679C26.5023 13.2402 25.7762 12.4974 24.8708 12.4974H14.7838ZM28.6814 15.4967L35.8745 24.2744V32.9018C35.8745 33.8909 36.6891 34.7258 37.656 34.7258C38.6237 34.7258 39.4399 33.8909 39.4399 32.9018V24.1209L46.6637 15.3086C46.9045 15.0017 47.0268 14.6602 47.0268 14.2274C47.0268 13.3005 46.3306 12.5277 45.3937 12.5277C44.9099 12.5277 44.396 12.7441 44.0952 13.1454L37.7183 20.8758L31.3999 13.1761C31.0391 12.7441 30.5552 12.5277 30.0114 12.5277C29.0445 12.5277 28.2575 13.3005 28.2575 14.3203C28.2575 14.7216 28.3783 15.1245 28.6814 15.4967ZM90.3829 12.5282C89.416 12.5282 88.5991 13.3308 88.5991 14.3506V32.9014C88.5991 33.8906 89.416 34.7262 90.3829 34.7262C91.3498 34.7262 92.1644 33.8906 92.1644 32.9014V14.3506C92.1644 13.3308 91.3498 12.5282 90.3829 12.5282ZM48.782 14.3506C48.782 14.3353 48.7822 14.32 48.7826 14.3047C48.7901 13.7216 49.0335 13.1851 49.4852 12.8617C49.6549 12.7399 49.843 12.6564 50.0407 12.6095C50.2075 12.5566 50.384 12.5282 50.5658 12.5282C51.1806 12.5282 51.7338 12.8526 52.0552 13.351C52.1128 13.4174 52.1678 13.4877 52.2198 13.562L61.7181 27.1265V14.3506C61.7181 13.3308 62.535 12.5282 63.5019 12.5282C64.4688 12.5282 65.2835 13.3308 65.2835 14.3506V32.9014C65.2835 32.915 65.2833 32.9284 65.283 32.9419C65.2887 33.5431 65.0526 34.106 64.5913 34.4365C64.2934 34.6497 63.936 34.7415 63.5696 34.7249C63.5471 34.7258 63.5245 34.7262 63.5019 34.7262C62.9867 34.7262 62.5141 34.489 62.1849 34.1177C62.0641 34.0047 61.9526 33.877 61.8536 33.7354L52.3474 20.159V32.9014C52.3474 33.8906 51.5328 34.7262 50.5658 34.7262C49.5989 34.7262 48.782 33.8906 48.782 32.9014V14.3506ZM116.421 23.6119C116.422 26.082 115.598 28.3474 114.258 30.1982L115.519 31.7224C116.136 32.4715 116.044 33.5912 115.312 34.2223C114.58 34.8542 113.487 34.7597 112.868 34.0114L106.875 26.7508C106.258 26.0033 106.35 24.8835 107.082 24.2509C107.814 23.6206 108.908 23.715 109.526 24.4625L111.941 27.3882C112.571 26.2747 112.953 24.9976 112.953 23.6119C112.953 21.5149 112.127 19.6311 110.785 18.2548C109.44 16.8825 107.6 16.0389 105.551 16.0374C103.5 16.0389 101.659 16.8825 100.314 18.2548C98.9706 19.6311 98.146 21.5149 98.1444 23.6119C98.146 25.709 98.9706 27.5904 100.314 28.9683C101.659 30.3406 103.5 31.1857 105.551 31.1857C106.028 31.1857 106.491 31.1385 106.939 31.0527C107.88 30.8678 108.789 31.4989 108.969 32.4612C109.148 33.422 108.533 34.3513 107.592 34.5363C106.93 34.6653 106.247 34.733 105.551 34.733C99.5444 34.733 94.6783 29.7551 94.6768 23.6119C94.6783 17.4679 99.5444 12.4917 105.551 12.4893C111.554 12.4917 116.421 17.4679 116.421 23.6119Z" fill="white"/>
</svg>
